<?xml version="1.0" encoding="UTF-8" standalone="no"?>
<!DOCTYPE svg PUBLIC "-//W3C//DTD SVG 1.1//EN" "http://www.w3.org/Graphics/SVG/1.1/DTD/svg11.dtd">
<svg width="100%" height="100%" viewBox="0 0 712 177" version="1.1" xmlns="http://www.w3.org/2000/svg" xmlns:xlink="http://www.w3.org/1999/xlink" xml:space="preserve" xmlns:serif="http://www.serif.com/" style="fill-rule:evenodd;clip-rule:evenodd;stroke-linejoin:round;stroke-miterlimit:2;">
    <g transform="matrix(1,0,0,1,-206.162469,-3822.529634)">
        <g id="Artboard1" transform="matrix(0.826951,0,0,0.614494,97.443465,1506.994036)">
            <rect x="131.47" y="3768.198" width="860.166" height="286.722" style="fill:none;"/>
            <g transform="matrix(1.275486,0,0,1.029607,-164.672075,3376.690252)">
                <g transform="matrix(0.617722,0,0,1.029815,144.091321,-1050.184105)">
                    <path d="M463.06,1641.11C436.21,1637.27 421.28,1627.99 389.58,1595.89L370.4,1576.51L392.6,1554.31L414.6,1532.11L437.01,1554.31C449.32,1566.42 461.84,1577.32 465.07,1578.33C473.95,1581.76 488.69,1580.95 495.95,1576.51C508.06,1569.24 508.87,1565.41 508.26,1515.55L507.65,1470.54L487.46,1470.54C472.72,1470.74 465.66,1471.55 461.02,1474.17C457.59,1475.99 423.07,1509.7 384.31,1549.26C345.55,1588.82 309.62,1623.95 304.37,1627.38C284.79,1639.69 276.11,1641.11 214.74,1641.11L159.23,1641.11L159.84,1557.94C160.65,1465.29 160.45,1466.3 175.38,1444.5C199.6,1409.38 253.7,1397.47 295.69,1418.06C306.99,1423.51 314.66,1429.77 334.04,1449.35L358.26,1473.57L336.06,1495.77L313.86,1518.18L294.68,1497.99C268.24,1470.13 255.72,1464.89 236.54,1473.57C229.88,1476.6 227.05,1479.42 223.82,1486.49C220.19,1494.77 219.98,1499.41 220.39,1537.56L221,1579.55L240.78,1580.16C255.92,1580.56 262.18,1579.96 267.63,1577.33C271.87,1575.31 299.12,1548.46 336.06,1509.91C402.47,1440.47 415.79,1427.55 428.51,1420.08C445.26,1410.39 456.57,1408.98 516.12,1408.98L571.23,1408.98L571.23,1484.27C571.23,1525.45 570.42,1564.61 569.21,1571.07C563.56,1606.6 538.12,1632.43 501.18,1640.11C486.44,1643.34 478.98,1643.54 463.03,1641.12L463.06,1641.11Z" style="fill:white;fill-rule:nonzero;"/>
                </g>
                <g transform="matrix(1,0,0,1,0,-1)">
                    <g transform="matrix(0.15545,0,0,0.259154,223.873256,18.759831)">
                        <g transform="matrix(633.88495,0,0,633.88495,4355.927543,1960.980772)">
                        </g>
                        <text x="2017.526px" y="1960.981px" style="font-family:'Poppins-Bold', 'Poppins';font-weight:700;font-size:633.885px;fill:white;">ARCON</text>
                    </g>
                    <g transform="matrix(0.118578,0,0,0.197683,294.978805,249.14865)">
                        <g transform="matrix(633.88495,0,0,633.88495,4314.725022,1960.980772)">
                        </g>
                        <text x="2017.526px" y="1960.981px" style="font-family:'Poppins-Regular', 'Poppins';font-size:633.885px;fill:white;">DIGITAL</text>
                    </g>
                </g>
            </g>
        </g>
    </g>
</svg>
